<?xml version="1.0" encoding="UTF-8"?>
<svg version="1.1" xmlns="http://www.w3.org/2000/svg" width="44" height="47">
<path d="M0 0 C4.41632177 -0.14509751 8.83203193 -0.23400818 13.25 -0.3125 C14.50425781 -0.35439453 15.75851563 -0.39628906 17.05078125 -0.43945312 C18.85869141 -0.46362305 18.85869141 -0.46362305 20.703125 -0.48828125 C22.36843262 -0.52755737 22.36843262 -0.52755737 24.06738281 -0.56762695 C27 -0 27 -0 29.37402344 2.30395508 C31.45955831 5.76199736 31.36814794 8.02400226 31 12 C30.67 12.99 30.34 13.98 30 15 C31.0725 15.495 32.145 15.99 33.25 16.5 C37.65032735 19.03487417 39.53338158 22.19857066 41 27 C41.87831218 32.32975798 40.92701201 36.45808481 38 41 C32.18575553 47.38148783 28.20294715 47.47402477 19.875 47.875 C18.34359375 48.03162109 18.34359375 48.03162109 16.78125 48.19140625 C13.45058377 48.31555705 11.13696249 48.14924696 8 47 C2.19091069 41.60528033 -0.29310728 35.32026738 -0.74075317 27.53460693 C-0.80924741 23.74321625 -0.67003932 19.97448413 -0.5 16.1875 C-0.45975808 14.60881587 -0.42327642 13.03003124 -0.390625 11.45117188 C-0.30360828 7.63157288 -0.1662457 3.81693737 0 0 Z M4 2 C6.11513233 9.38862902 6.11513233 9.38862902 11 15 C16.19770055 15.92344934 21.68320311 16.3769277 26.33984375 13.609375 C28.15883175 12.05622303 28.15883175 12.05622303 29 9.625 C29.19634864 6.89774798 29.19634864 6.89774798 27.671875 4.35546875 C23.54790707 0.71986544 19.548105 1.45822116 14.25 1.6875 C12.77466797 1.72133789 12.77466797 1.72133789 11.26953125 1.75585938 C8.8448053 1.81471195 6.42318017 1.89686569 4 2 Z M2 6 C2 13.92 2 21.84 2 30 C4.31 30 6.62 30 9 30 C9.74482076 20.42767398 9.30399687 13.57876632 3 6 C2.67 6 2.34 6 2 6 Z M11 17 C11 21.29 11 25.58 11 30 C13.27024968 30.08097324 15.54132075 30.13917704 17.8125 30.1875 C19.70935547 30.23970703 19.70935547 30.23970703 21.64453125 30.29296875 C24.93146332 30.29503736 24.93146332 30.29503736 26.88671875 28.63671875 C28.483192 26.289623 29 24.86271773 29 22 C27.35561583 19.15395047 26.87545707 18.34001883 24 17 C19.57751511 16.5721901 15.46212811 16.77463999 11 17 Z M29 18 C29.33 18.66 29.66 19.32 30 20 C30.25211097 23.40349805 30.44054232 26.04349177 28.99609375 29.1796875 C25.97778101 31.9321997 22.705401 31.6752019 18.8125 31.75 C18.06291016 31.77964844 17.31332031 31.80929688 16.54101562 31.83984375 C14.69458693 31.9104079 12.84728739 31.95748476 11 32 C11 36.29 11 40.58 11 45 C13.68860931 45.10887507 16.37273158 45.18770594 19.0625 45.25 C19.81466797 45.28351562 20.56683594 45.31703125 21.34179688 45.3515625 C27.07464425 45.45083258 30.28529982 44.28764534 35 41 C37.73312731 37.53803874 38.82373479 34.40663016 39 30 C37.3619806 24.81293856 35.15063759 21.51207796 31 18 C30.34 18 29.68 18 29 18 Z M3 32 C4.65 35.3 6.3 38.6 8 42 C8.33 42 8.66 42 9 42 C9 38.7 9 35.4 9 32 C7.02 32 5.04 32 3 32 Z " fill="#B2865D" transform="translate(0,0)"/>
</svg>
